<svg xmlns="http://www.w3.org/2000/svg" xmlns:xlink="http://www.w3.org/1999/xlink"
     viewBox="0 0 320 92">
  <defs><path id="a" d="M.096.157h41.887v41.826H.096z"/></defs>

  <!-- Hem logo mark -->
  <g fill="none" fill-rule="evenodd">
    <!-- Yellow leaves -->
    <path fill="#F7A800" d="M118 46.28s-3.02 3.122-10.136 2.676c-8.484-.531-12.743-3.163-19.635-7.66C85.019 39.2 79.69 38.71 77 39.484c0 0 14.785-13.702 41 6.795"/>
    <path fill="#F7A800" d="M120 40s-4.287.105-9.12-5.108c-5.764-6.217-7.061-10.993-8.999-18.89C100.978 12.325 97.465 8.311 95 7c0 0 19.913.591 25 33"/>
    <path fill="#F7A800" d="M125.557 40s-2.596-3.48-1.084-10.53c1.805-8.406 5.024-12.277 10.466-18.508 2.534-2.9 3.821-8.156 3.47-10.962 0 0 11.162 16.801-12.852 40"/>
    <path fill="#F7A800" d="M130 42.747s.895-4.236 7.104-7.75c7.404-4.19 12.363-4.334 20.515-4.369 3.796-.016 8.529-2.517 10.381-4.628 0 0-5.213 19.423-38 16.747"/>
    <g transform="translate(124 47)">
      <mask id="b" fill="#fff"><use xlink:href="#a"/></mask>
      <path fill="#F7A800" d="M5.232.899s3.752-1.982 10.34.531c7.858 2.998 11.12 6.678 16.332 12.856 2.426 2.875 7.315 4.902 10.08 4.985 0 0-17.908 8.24-36.752-18.372" mask="url(#b)"/>
      <path fill="#F7A800" d="M.356 4.297s4.147.895 7.577 7.057c4.09 7.348 4.22 12.265 4.24 20.347.008 3.762 2.449 8.458 4.513 10.299 0 0-19.013-5.204-16.33-37.703" mask="url(#b)"/>
    </g>

    <!-- "hem" text (white for dark background) -->
    <path fill="#ffffff" d="M32.041 71c-4.998 0-8.626-1.771-8.626-3.679V56.9H9.448V71H0V49.678C0 47.022 2.533 46 9.517 46v7.22h14.24c4.314 0 9.243 1.363 9.243 4.429V71h-.959"/>
    <path fill="#ffffff" d="M48.448 60.517h13.967v-3.793H48.448v3.793ZM62.415 71H48.448C43.655 71 39 69.345 39 66.655v-9.517C39 53.76 45.846 53 48.517 53h14.035C67.482 53 72 54.793 72 56.793v3.586c0 2.483-3.697 3.655-9.38 3.655H48.449v3.518H72C72 69.207 66.66 71 62.415 71Z"/>
    <path fill="#ffffff" d="M118.93 71c-4.923 0-9.706-1.315-9.706-3.462V56.67h-6.117c.21.485.351.97.351 1.523V71h-.141c-5.344 0-9.634-1.662-9.634-4.085V56.67h-5.907V71H78V53h1.336c.844 0 1.688.07 2.462.139 2.039.207 3.797 1.038 5.063 1.661 2.461-1.315 4.36-1.8 6.963-1.8 3.867 0 5.907.554 7.946 2.007 1.125-.553 1.829-.968 2.672-1.314 1.336-.485 3.728-.693 4.502-.693 3.094 0 10.056.485 10.056 4.5V71h-.07"/>
  </g>

  <!-- BVPro text -->
  <text x="178" y="68"
        font-family="Helvetica Neue, Helvetica, Arial, Liberation Sans, sans-serif"
        font-weight="bold"
        font-style="oblique"
        font-size="44"
        fill="white"
        letter-spacing="-0.5">BVPro</text>
</svg>
